#!OML:ASF F:\twosubjects\two\wednesday\Session 1\rory1.ASF
:FULLY-SPECIFIED
:DEGREES
214
root -2.74272 18.2153 -9.77441 -171.558 0.694179 -186.664
lowerback 0.561388 -0.519823 -9.12207
upperback 0.111858 -0.606277 -1.82062
thorax -0.115325 -0.239386 3.22781
lowerneck -13.6997 -1.28595 0.849737
upperneck 19.6897 -0.981187 -2.23844
head 8.36086 -0.429694 -0.9709
rclavicle 1.15047e-014 1.45113e-014
rhumerus -13.7771 14.5344 -85.5093
rradius 59.8051
rwrist -3.88139
rhand -27.2206 38.9228
rfingers 7.12502
rthumb -0.633156 8.94397
lclavicle 1.15047e-014 1.45113e-014
lhumerus -12.4071 -10.3691 91.3774
lradius 41.0127
lwrist 6.68849
lhand -23.5319 16.6039
lfingers 7.12502
lthumb 2.9294 46.5636
rfemur -32.5449 6.69418 8.64029
rtibia 26.1347
rfoot -8.57533 -16.9185
rtoes 6.84381
lfemur 1.15159 -1.16379 -31.8367
ltibia 15.6677
lfoot -10.8327 -1.96204
ltoes -4.77747
215
root -2.73992 18.2089 -9.9582 -171.208 0.13315 -186.605
lowerback 0.238666 -0.42803 -9.02853
upperback 0.204184 -0.717908 -1.72159
thorax 0.157677 -0.427534 3.27523
lowerneck -14.0149 -1.35164 0.549817
upperneck 19.5634 -1.1081 -1.90102
head 8.37822 -0.490083 -0.825175
rclavicle -4.44781e-015 -3.49861e-014
rhumerus -13.8572 14.986 -85.7712
rradius 60.6893
rwrist -3.8816
rhand -27.5929 39.4285
rfingers 7.12502
rthumb -0.992717 9.45101
lclavicle -4.44781e-015 -3.49861e-014
lhumerus -12.185 -10.7109 91.6161
lradius 41.6496
lwrist 6.33906
lhand -23.0556 15.7428
lfingers 7.12502
lthumb 3.3894 45.6956
rfemur -32.7692 7.80084 8.16561
rtibia 23.8895
rfoot -8.77978 -18.1666
rtoes 9.85463
lfemur 2.36592 -1.45756 -31.5706
ltibia 14.0507
lfoot -9.60055 -2.64308
ltoes -2.47937
216
root -2.73998 18.1996 -10.15 -170.932 -0.32986 -186.881
lowerback 0.0597098 -0.465288 -9.19316
upperback 0.120591 -0.756981 -1.76203
thorax 0.177463 -0.447439 3.32314
lowerneck -13.9175 -1.49905 0.189527
upperneck 19.4247 -1.32884 -1.48471
head 8.31737 -0.581186 -0.649282
rclavicle -2.48481e-015 2.20651e-014
rhumerus -14.526 15.278 -86.2265
rradius 61.7788
rwrist -3.90115
rhand -27.7378 39.036
rfingers 7.12502
rthumb -1.13263 9.05922
lclavicle -2.48481e-015 2.20651e-014
lhumerus -12.2064 -10.9666 91.9118
lradius 41.7822
lwrist 5.8349
lhand -24.2617 12.0944
lfingers 7.12502
lthumb 2.22464 42.0625
rfemur -33.0643 8.88213 7.24657
rtibia 21.9849
rfoot -9.52755 -19.6956
rtoes 9.14686
lfemur 3.54959 -1.41341 -31.6814
ltibia 12.4888
lfoot -8.44528 -3.26741
ltoes -2.02278
217
root -2.73895 18.1914 -10.3453 -170.636 -0.735379 -187.128
lowerback -0.0693608 -0.529578 -9.41502
upperback -0.0230084 -0.837482 -1.72662
thorax 0.114243 -0.481008 3.48215
lowerneck -13.8292 -1.00901 -0.089159
upperneck 19.3698 -1.59795 -1.28763
head 8.28575 -1.08601 -0.620888
rclavicle 7.05686e-015 3.47873e-014
rhumerus -15.0624 15.7892 -86.6195
rradius 62.4525
rwrist -4.03335
rhand -27.655 38.664
rfingers 7.12502
rthumb -1.05272 8.68684
lclavicle 7.05686e-015 3.47873e-014
lhumerus -12.4871 -11.5072 92.2411
lradius 42.5309
lwrist 6.05935
lhand -27.1729 9.2272
lfingers 7.12502
lthumb -0.587048 39.2061
rfemur -33.4274 10.1198 6.27493
rtibia 20.4034
rfoot -10.9035 -21.2051
rtoes 8.78711
lfemur 4.70246 -1.30677 -31.7658
ltibia 10.9382
lfoot -7.59529 -3.63607
ltoes -3.27163
218
root -2.73625 18.1857 -10.5407 -170.486 -1.14846 -187.171
lowerback -0.111079 -0.600815 -9.35451
upperback -0.0267134 -0.925532 -1.71419
thorax 0.14477 -0.525131 3.46034
lowerneck -14.0025 -1.05632 -0.0118365
upperneck 19.3596 -1.6656 -1.30148
head 8.31235 -1.1092 -0.646833
rclavicle 1.11816e-015 5.56597e-015
rhumerus -15.2711 16.3462 -87.0629
rradius 62.7625
rwrist -4.02
rhand -27.6049 38.8983
rfingers 7.12502
rthumb -1.00432 8.92096
lclavicle 1.11816e-015 5.56597e-015
lhumerus -12.7558 -11.6589 92.3259
lradius 43.2046
lwrist 5.8059
lhand -28.2363 5.3768
lfingers 7.12502
lthumb -1.61414 35.3504
rfemur -33.6347 11.695 5.45501
rtibia 19.1126
rfoot -12.4619 -22.6992
rtoes 8.50112
lfemur 5.91285 -1.58504 -31.6418
ltibia 9.6678
lfoot -7.10332 -3.65117
ltoes -4.91396
219
root -2.73348 18.1684 -10.7339 -170.465 -1.49795 -187.232
lowerback -0.147184 -0.558469 -9.17828
upperback 0.153396 -0.853046 -1.76371
thorax 0.33997 -0.502212 3.30958
lowerneck -14.471 -1.27828 0.0441199
upperneck 19.2837 -1.94911 -1.30822
head 8.36869 -1.22643 -0.692509
rclavicle 2.96935e-015 8.64713e-015
rhumerus -15.3445 16.5477 -87.3945
rradius 63.0866
rwrist -3.90162
rhand -27.8302 39.6042
rfingers 7.12502
rthumb -1.2219 9.62792
lclavicle 2.96935e-015 8.64713e-015
lhumerus -12.7418 -11.8461 92.5693
lradius 44.03
lwrist 5.05499
lhand -25.8994 9.93528
lfingers 7.12502
lthumb 0.642865 39.9141
rfemur -33.792 13.3439 4.62286
rtibia 18.0255
rfoot -13.5861 -24.1935
rtoes 7.8472
lfemur 6.90458 -1.78108 -31.556
ltibia 9.01957
lfoot -7.00921 -3.64218
ltoes -7.44083
220
root -2.73039 18.146 -10.9227 -170.281 -1.82074 -187.248
lowerback -0.164047 -0.525006 -9.00307
upperback 0.197756 -0.796436 -1.70024
thorax 0.387617 -0.473604 3.278
lowerneck -14.8332 -1.55695 -0.17734
upperneck 19.1337 -2.26366 -1.23775
head 8.38476 -1.37088 -0.66887
rclavicle -5.42931e-015 5.96354e-015
rhumerus -15.5094 16.8338 -87.5932
rradius 63.3641
rwrist -3.85465
rhand -27.9855 39.8436
rfingers 7.12502
rthumb -1.37195 9.86831
lclavicle -5.42931e-015 5.96354e-015
lhumerus -12.7637 -12.1454 92.9512
lradius 44.4647
lwrist 5.55743
lhand -24.4881 11.8823
lfingers 7.12502
lthumb 2.00597 41.8526
rfemur -34.1293 14.0646 4.26523
rtibia 17.2728
rfoot -13.9728 -24.9593
rtoes 6.31954
lfemur 7.53272 -1.97562 -31.4351
ltibia 8.61736
lfoot -6.81671 -3.61301
ltoes -11.4015
221
root -2.72639 18.1293 -11.1105 -170.04 -2.04358 -187.296
lowerback 0.0617153 -0.570145 -8.89507
upperback -0.138882 -0.905735 -1.73963
thorax -0.0781702 -0.500267 3.1826
lowerneck -14.4927 -1.58537 -0.262158
upperneck 19.0526 -2.33625 -1.04183
head 8.29917 -1.39494 -0.592969
rclavicle 9.25591e-015 -1.39149e-014
rhumerus -16.3692 17.3398 -88.4016
rradius 63.7779
rwrist -3.71152
rhand -27.8683 39.1915
rfingers 7.12502
rthumb -1.25867 9.21545
lclavicle 9.25591e-015 -1.39149e-014
lhumerus -13.624 -12.1679 93.0122
lradius 45.2718
lwrist 5.55902
lhand -20.3914 14.4072
lfingers 7.12502
lthumb 5.96194 44.3033
rfemur -34.3324 13.7778 4.47212
rtibia 16.876
rfoot -14.2593 -24.5556
rtoes 5.76108
lfemur 8.0344 -2.09126 -31.3479
ltibia 8.30943
lfoot -6.23606 -3.71437
ltoes -14.587
222
root -2.72324 18.0966 -11.3027 -170.12 -2.02332 -187.497
lowerback -0.122212 -0.428347 -9.17879
upperback 0.294056 -0.659963 -1.58106
thorax 0.451233 -0.409174 3.50006
lowerneck -15.3516 -1.722 -0.80887
upperneck 19.0205 -2.37486 -0.873321
head 8.45273 -1.41619 -0.458509
rclavicle -6.99784e-015 7.29291e-015
rhumerus -16.0688 17.7357 -88.2893
rradius 64.0797
rwrist -3.52051
rhand -27.7514 38.5971
rfingers 7.12502
rthumb -1.14583 8.62044
lclavicle -6.99784e-015 7.29291e-015
lhumerus -13.1669 -12.4088 93.5014
lradius 45.5554
lwrist 6.31363
lhand -19.3305 13.5655
lfingers 7.12502
lthumb 6.98612 43.4302
rfemur -34.0492 12.7432 5.11393
rtibia 16.7208
rfoot -13.8976 -23.1459
rtoes 4.16408
lfemur 8.7244 -1.93286 -31.4741
ltibia 8.37603
lfoot -5.70356 -3.9446
ltoes -15.0879
223
root -2.71946 18.0564 -11.501 -170.459 -1.94513 -187.255
lowerback 0.118633 -0.260262 -8.88388
upperback 0.497749 -0.439005 -1.43567
thorax 0.498748 -0.300915 3.48925
lowerneck -15.3779 -1.80808 -0.852777
upperneck 18.6767 -2.44508 -0.915353
head 8.34149 -1.44533 -0.468731
rclavicle -6.38596e-015 -3.42904e-015
rhumerus -16.4258 18.1821 -88.5488
rradius 64.1555
rwrist -3.2855
rhand -27.5607 38.6248
rfingers 7.12502
rthumb -0.961596 8.64719
lclavicle -6.38596e-015 -3.42904e-015
lhumerus -13.1333 -12.3657 93.7085
lradius 45.54
lwrist 6.11191
lhand -15.8493 12.6146
lfingers 7.12502
lthumb 10.3456 42.3401
rfemur -33.5442 11.4895 6.5366
rtibia 16.9092
rfoot -12.6122 -21.505
rtoes 1.56217
lfemur 9.63365 -1.60476 -31.1235
ltibia 8.58191
lfoot -5.4283 -4.3686
ltoes -14.9271
224
root -2.71594 18.0278 -11.7009 -170.687 -1.92598 -186.908
lowerback 0.551143 -0.160341 -8.20919
upperback 0.351911 -0.355445 -1.51382
thorax 0.0888078 -0.235155 3.03663
lowerneck -14.8146 -1.88894 -0.470155
upperneck 18.1495 -2.61176 -1.04976
head 8.05597 -1.50553 -0.58154
rclavicle 1.05666e-014 -8.27441e-015
rhumerus -17.4006 18.4621 -89.4625
rradius 64.1196
rwrist -2.76803
rhand -27.4031 38.871
rfingers 7.12502
rthumb -0.809441 8.89284
lclavicle 1.05666e-014 -8.27441e-015
lhumerus -14.1012 -12.5157 93.6481
lradius 46.2101
lwrist 6.09293
lhand -21.2171 12.894
lfingers 7.12502
lthumb 5.16473 42.8111
rfemur -33.2541 10.7275 7.80591
rtibia 17.5118
rfoot -11.7326 -20.1047
rtoes 1.53205
lfemur 10.4853 -1.34725 -30.6302
ltibia 8.71473
lfoot -5.13168 -4.8374
ltoes -16.1187
